<?xml version="1.0" encoding="utf-8" standalone="no"?>
<!DOCTYPE svg PUBLIC "-//W3C//DTD SVG 1.1//EN"
  "http://www.w3.org/Graphics/SVG/1.1/DTD/svg11.dtd">
<!-- Created with matplotlib (http://matplotlib.org/) -->
<svg height="404.64pt" version="1.1" viewBox="0 0 761.04 404.64" width="761.04pt" xmlns="http://www.w3.org/2000/svg" xmlns:xlink="http://www.w3.org/1999/xlink">
 <defs>
  <style type="text/css">
*{stroke-linecap:butt;stroke-linejoin:round;}
  </style>
 </defs>
 <g id="figure_1">
  <g id="patch_1">
   <path d="M 0 404.64 
L 761.04 404.64 
L 761.04 0 
L 0 0 
z
" style="fill:#ffffff;"/>
  </g>
  <g id="axes_1">
   <g id="patch_2">
    <path d="M 73.837611 296.949079 
L 750.9834 296.949079 
L 750.9834 17.8716 
L 73.837611 17.8716 
z
" style="fill:#ffffff;"/>
   </g>
   <g id="matplotlib.axis_1">
    <g id="xtick_1">
     <g id="line2d_1">
      <defs>
       <path d="M 0 0 
L 0 3.5 
" id="mf4e2714e6e" style="stroke:#000000;stroke-width:0.8;"/>
      </defs>
      <g>
       <use style="stroke:#000000;stroke-width:0.8;" x="113.669716" xlink:href="#mf4e2714e6e" y="296.949079"/>
      </g>
     </g>
     <g id="text_1">
      <!-- PubMedBert Model+Adapter EP_NB -->
      <defs>
       <path d="M 19.671875 64.796875 
L 19.671875 37.40625 
L 32.078125 37.40625 
Q 38.96875 37.40625 42.71875 40.96875 
Q 46.484375 44.53125 46.484375 51.125 
Q 46.484375 57.671875 42.71875 61.234375 
Q 38.96875 64.796875 32.078125 64.796875 
z
M 9.8125 72.90625 
L 32.078125 72.90625 
Q 44.34375 72.90625 50.609375 67.359375 
Q 56.890625 61.8125 56.890625 51.125 
Q 56.890625 40.328125 50.609375 34.8125 
Q 44.34375 29.296875 32.078125 29.296875 
L 19.671875 29.296875 
L 19.671875 0 
L 9.8125 0 
z
" id="DejaVuSans-50"/>
       <path d="M 8.5 21.578125 
L 8.5 54.6875 
L 17.484375 54.6875 
L 17.484375 21.921875 
Q 17.484375 14.15625 20.5 10.265625 
Q 23.53125 6.390625 29.59375 6.390625 
Q 36.859375 6.390625 41.078125 11.03125 
Q 45.3125 15.671875 45.3125 23.6875 
L 45.3125 54.6875 
L 54.296875 54.6875 
L 54.296875 0 
L 45.3125 0 
L 45.3125 8.40625 
Q 42.046875 3.421875 37.71875 1 
Q 33.40625 -1.421875 27.6875 -1.421875 
Q 18.265625 -1.421875 13.375 4.4375 
Q 8.5 10.296875 8.5 21.578125 
z
M 31.109375 56 
z
" id="DejaVuSans-75"/>
       <path d="M 48.6875 27.296875 
Q 48.6875 37.203125 44.609375 42.84375 
Q 40.53125 48.484375 33.40625 48.484375 
Q 26.265625 48.484375 22.1875 42.84375 
Q 18.109375 37.203125 18.109375 27.296875 
Q 18.109375 17.390625 22.1875 11.75 
Q 26.265625 6.109375 33.40625 6.109375 
Q 40.53125 6.109375 44.609375 11.75 
Q 48.6875 17.390625 48.6875 27.296875 
z
M 18.109375 46.390625 
Q 20.953125 51.265625 25.265625 53.625 
Q 29.59375 56 35.59375 56 
Q 45.5625 56 51.78125 48.09375 
Q 58.015625 40.1875 58.015625 27.296875 
Q 58.015625 14.40625 51.78125 6.484375 
Q 45.5625 -1.421875 35.59375 -1.421875 
Q 29.59375 -1.421875 25.265625 0.953125 
Q 20.953125 3.328125 18.109375 8.203125 
L 18.109375 0 
L 9.078125 0 
L 9.078125 75.984375 
L 18.109375 75.984375 
z
" id="DejaVuSans-62"/>
       <path d="M 9.8125 72.90625 
L 24.515625 72.90625 
L 43.109375 23.296875 
L 61.8125 72.90625 
L 76.515625 72.90625 
L 76.515625 0 
L 66.890625 0 
L 66.890625 64.015625 
L 48.09375 14.015625 
L 38.1875 14.015625 
L 19.390625 64.015625 
L 19.390625 0 
L 9.8125 0 
z
" id="DejaVuSans-4d"/>
       <path d="M 56.203125 29.59375 
L 56.203125 25.203125 
L 14.890625 25.203125 
Q 15.484375 15.921875 20.484375 11.0625 
Q 25.484375 6.203125 34.421875 6.203125 
Q 39.59375 6.203125 44.453125 7.46875 
Q 49.3125 8.734375 54.109375 11.28125 
L 54.109375 2.78125 
Q 49.265625 0.734375 44.1875 -0.34375 
Q 39.109375 -1.421875 33.890625 -1.421875 
Q 20.796875 -1.421875 13.15625 6.1875 
Q 5.515625 13.8125 5.515625 26.8125 
Q 5.515625 40.234375 12.765625 48.109375 
Q 20.015625 56 32.328125 56 
Q 43.359375 56 49.78125 48.890625 
Q 56.203125 41.796875 56.203125 29.59375 
z
M 47.21875 32.234375 
Q 47.125 39.59375 43.09375 43.984375 
Q 39.0625 48.390625 32.421875 48.390625 
Q 24.90625 48.390625 20.390625 44.140625 
Q 15.875 39.890625 15.1875 32.171875 
z
" id="DejaVuSans-65"/>
       <path d="M 45.40625 46.390625 
L 45.40625 75.984375 
L 54.390625 75.984375 
L 54.390625 0 
L 45.40625 0 
L 45.40625 8.203125 
Q 42.578125 3.328125 38.25 0.953125 
Q 33.9375 -1.421875 27.875 -1.421875 
Q 17.96875 -1.421875 11.734375 6.484375 
Q 5.515625 14.40625 5.515625 27.296875 
Q 5.515625 40.1875 11.734375 48.09375 
Q 17.96875 56 27.875 56 
Q 33.9375 56 38.25 53.625 
Q 42.578125 51.265625 45.40625 46.390625 
z
M 14.796875 27.296875 
Q 14.796875 17.390625 18.875 11.75 
Q 22.953125 6.109375 30.078125 6.109375 
Q 37.203125 6.109375 41.296875 11.75 
Q 45.40625 17.390625 45.40625 27.296875 
Q 45.40625 37.203125 41.296875 42.84375 
Q 37.203125 48.484375 30.078125 48.484375 
Q 22.953125 48.484375 18.875 42.84375 
Q 14.796875 37.203125 14.796875 27.296875 
z
" id="DejaVuSans-64"/>
       <path d="M 19.671875 34.8125 
L 19.671875 8.109375 
L 35.5 8.109375 
Q 43.453125 8.109375 47.28125 11.40625 
Q 51.125 14.703125 51.125 21.484375 
Q 51.125 28.328125 47.28125 31.5625 
Q 43.453125 34.8125 35.5 34.8125 
z
M 19.671875 64.796875 
L 19.671875 42.828125 
L 34.28125 42.828125 
Q 41.5 42.828125 45.03125 45.53125 
Q 48.578125 48.25 48.578125 53.8125 
Q 48.578125 59.328125 45.03125 62.0625 
Q 41.5 64.796875 34.28125 64.796875 
z
M 9.8125 72.90625 
L 35.015625 72.90625 
Q 46.296875 72.90625 52.390625 68.21875 
Q 58.5 63.53125 58.5 54.890625 
Q 58.5 48.1875 55.375 44.234375 
Q 52.25 40.28125 46.1875 39.3125 
Q 53.46875 37.75 57.5 32.78125 
Q 61.53125 27.828125 61.53125 20.40625 
Q 61.53125 10.640625 54.890625 5.3125 
Q 48.25 0 35.984375 0 
L 9.8125 0 
z
" id="DejaVuSans-42"/>
       <path d="M 41.109375 46.296875 
Q 39.59375 47.171875 37.8125 47.578125 
Q 36.03125 48 33.890625 48 
Q 26.265625 48 22.1875 43.046875 
Q 18.109375 38.09375 18.109375 28.8125 
L 18.109375 0 
L 9.078125 0 
L 9.078125 54.6875 
L 18.109375 54.6875 
L 18.109375 46.1875 
Q 20.953125 51.171875 25.484375 53.578125 
Q 30.03125 56 36.53125 56 
Q 37.453125 56 38.578125 55.875 
Q 39.703125 55.765625 41.0625 55.515625 
z
" id="DejaVuSans-72"/>
       <path d="M 18.3125 70.21875 
L 18.3125 54.6875 
L 36.8125 54.6875 
L 36.8125 47.703125 
L 18.3125 47.703125 
L 18.3125 18.015625 
Q 18.3125 11.328125 20.140625 9.421875 
Q 21.96875 7.515625 27.59375 7.515625 
L 36.8125 7.515625 
L 36.8125 0 
L 27.59375 0 
Q 17.1875 0 13.234375 3.875 
Q 9.28125 7.765625 9.28125 18.015625 
L 9.28125 47.703125 
L 2.6875 47.703125 
L 2.6875 54.6875 
L 9.28125 54.6875 
L 9.28125 70.21875 
z
" id="DejaVuSans-74"/>
       <path id="DejaVuSans-20"/>
       <path d="M 30.609375 48.390625 
Q 23.390625 48.390625 19.1875 42.75 
Q 14.984375 37.109375 14.984375 27.296875 
Q 14.984375 17.484375 19.15625 11.84375 
Q 23.34375 6.203125 30.609375 6.203125 
Q 37.796875 6.203125 41.984375 11.859375 
Q 46.1875 17.53125 46.1875 27.296875 
Q 46.1875 37.015625 41.984375 42.703125 
Q 37.796875 48.390625 30.609375 48.390625 
z
M 30.609375 56 
Q 42.328125 56 49.015625 48.375 
Q 55.71875 40.765625 55.71875 27.296875 
Q 55.71875 13.875 49.015625 6.21875 
Q 42.328125 -1.421875 30.609375 -1.421875 
Q 18.84375 -1.421875 12.171875 6.21875 
Q 5.515625 13.875 5.515625 27.296875 
Q 5.515625 40.765625 12.171875 48.375 
Q 18.84375 56 30.609375 56 
z
" id="DejaVuSans-6f"/>
       <path d="M 9.421875 75.984375 
L 18.40625 75.984375 
L 18.40625 0 
L 9.421875 0 
z
" id="DejaVuSans-6c"/>
       <path d="M 46 62.703125 
L 46 35.5 
L 73.1875 35.5 
L 73.1875 27.203125 
L 46 27.203125 
L 46 0 
L 37.796875 0 
L 37.796875 27.203125 
L 10.59375 27.203125 
L 10.59375 35.5 
L 37.796875 35.5 
L 37.796875 62.703125 
z
" id="DejaVuSans-2b"/>
       <path d="M 34.1875 63.1875 
L 20.796875 26.90625 
L 47.609375 26.90625 
z
M 28.609375 72.90625 
L 39.796875 72.90625 
L 67.578125 0 
L 57.328125 0 
L 50.6875 18.703125 
L 17.828125 18.703125 
L 11.1875 0 
L 0.78125 0 
z
" id="DejaVuSans-41"/>
       <path d="M 34.28125 27.484375 
Q 23.390625 27.484375 19.1875 25 
Q 14.984375 22.515625 14.984375 16.5 
Q 14.984375 11.71875 18.140625 8.90625 
Q 21.296875 6.109375 26.703125 6.109375 
Q 34.1875 6.109375 38.703125 11.40625 
Q 43.21875 16.703125 43.21875 25.484375 
L 43.21875 27.484375 
z
M 52.203125 31.203125 
L 52.203125 0 
L 43.21875 0 
L 43.21875 8.296875 
Q 40.140625 3.328125 35.546875 0.953125 
Q 30.953125 -1.421875 24.3125 -1.421875 
Q 15.921875 -1.421875 10.953125 3.296875 
Q 6 8.015625 6 15.921875 
Q 6 25.140625 12.171875 29.828125 
Q 18.359375 34.515625 30.609375 34.515625 
L 43.21875 34.515625 
L 43.21875 35.40625 
Q 43.21875 41.609375 39.140625 45 
Q 35.0625 48.390625 27.6875 48.390625 
Q 23 48.390625 18.546875 47.265625 
Q 14.109375 46.140625 10.015625 43.890625 
L 10.015625 52.203125 
Q 14.9375 54.109375 19.578125 55.046875 
Q 24.21875 56 28.609375 56 
Q 40.484375 56 46.34375 49.84375 
Q 52.203125 43.703125 52.203125 31.203125 
z
" id="DejaVuSans-61"/>
       <path d="M 18.109375 8.203125 
L 18.109375 -20.796875 
L 9.078125 -20.796875 
L 9.078125 54.6875 
L 18.109375 54.6875 
L 18.109375 46.390625 
Q 20.953125 51.265625 25.265625 53.625 
Q 29.59375 56 35.59375 56 
Q 45.5625 56 51.78125 48.09375 
Q 58.015625 40.1875 58.015625 27.296875 
Q 58.015625 14.40625 51.78125 6.484375 
Q 45.5625 -1.421875 35.59375 -1.421875 
Q 29.59375 -1.421875 25.265625 0.953125 
Q 20.953125 3.328125 18.109375 8.203125 
z
M 48.6875 27.296875 
Q 48.6875 37.203125 44.609375 42.84375 
Q 40.53125 48.484375 33.40625 48.484375 
Q 26.265625 48.484375 22.1875 42.84375 
Q 18.109375 37.203125 18.109375 27.296875 
Q 18.109375 17.390625 22.1875 11.75 
Q 26.265625 6.109375 33.40625 6.109375 
Q 40.53125 6.109375 44.609375 11.75 
Q 48.6875 17.390625 48.6875 27.296875 
z
" id="DejaVuSans-70"/>
       <path d="M 9.8125 72.90625 
L 55.90625 72.90625 
L 55.90625 64.59375 
L 19.671875 64.59375 
L 19.671875 43.015625 
L 54.390625 43.015625 
L 54.390625 34.71875 
L 19.671875 34.71875 
L 19.671875 8.296875 
L 56.78125 8.296875 
L 56.78125 0 
L 9.8125 0 
z
" id="DejaVuSans-45"/>
       <path d="M 50.984375 -16.609375 
L 50.984375 -23.578125 
L -0.984375 -23.578125 
L -0.984375 -16.609375 
z
" id="DejaVuSans-5f"/>
       <path d="M 9.8125 72.90625 
L 23.09375 72.90625 
L 55.421875 11.921875 
L 55.421875 72.90625 
L 64.984375 72.90625 
L 64.984375 0 
L 51.703125 0 
L 19.390625 60.984375 
L 19.390625 0 
L 9.8125 0 
z
" id="DejaVuSans-4e"/>
      </defs>
      <g transform="translate(-13.290202 434.614678)rotate(-45)scale(0.1 -0.1)">
       <use xlink:href="#DejaVuSans-50"/>
       <use x="60.287109" xlink:href="#DejaVuSans-75"/>
       <use x="123.666016" xlink:href="#DejaVuSans-62"/>
       <use x="187.142578" xlink:href="#DejaVuSans-4d"/>
       <use x="273.421875" xlink:href="#DejaVuSans-65"/>
       <use x="334.945312" xlink:href="#DejaVuSans-64"/>
       <use x="398.421875" xlink:href="#DejaVuSans-42"/>
       <use x="467.025391" xlink:href="#DejaVuSans-65"/>
       <use x="528.548828" xlink:href="#DejaVuSans-72"/>
       <use x="569.662109" xlink:href="#DejaVuSans-74"/>
       <use x="608.871094" xlink:href="#DejaVuSans-20"/>
       <use x="640.658203" xlink:href="#DejaVuSans-4d"/>
       <use x="726.9375" xlink:href="#DejaVuSans-6f"/>
       <use x="788.119141" xlink:href="#DejaVuSans-64"/>
       <use x="851.595703" xlink:href="#DejaVuSans-65"/>
       <use x="913.119141" xlink:href="#DejaVuSans-6c"/>
       <use x="940.902344" xlink:href="#DejaVuSans-2b"/>
       <use x="1024.691406" xlink:href="#DejaVuSans-41"/>
       <use x="1093.083984" xlink:href="#DejaVuSans-64"/>
       <use x="1156.560547" xlink:href="#DejaVuSans-61"/>
       <use x="1217.839844" xlink:href="#DejaVuSans-70"/>
       <use x="1281.316406" xlink:href="#DejaVuSans-74"/>
       <use x="1320.525391" xlink:href="#DejaVuSans-65"/>
       <use x="1382.048828" xlink:href="#DejaVuSans-72"/>
       <use x="1423.162109" xlink:href="#DejaVuSans-20"/>
       <use x="1454.949219" xlink:href="#DejaVuSans-45"/>
       <use x="1518.132812" xlink:href="#DejaVuSans-50"/>
       <use x="1578.435547" xlink:href="#DejaVuSans-5f"/>
       <use x="1628.435547" xlink:href="#DejaVuSans-4e"/>
       <use x="1703.240234" xlink:href="#DejaVuSans-42"/>
      </g>
     </g>
    </g>
    <g id="xtick_2">
     <g id="line2d_2">
      <g>
       <use style="stroke:#000000;stroke-width:0.8;" x="153.501821" xlink:href="#mf4e2714e6e" y="296.949079"/>
      </g>
     </g>
     <g id="text_2">
      <!-- PubMedBert Model+Adapter LP_NB -->
      <defs>
       <path d="M 9.8125 72.90625 
L 19.671875 72.90625 
L 19.671875 8.296875 
L 55.171875 8.296875 
L 55.171875 0 
L 9.8125 0 
z
" id="DejaVuSans-4c"/>
      </defs>
      <g transform="translate(27.070024 434.086557)rotate(-45)scale(0.1 -0.1)">
       <use xlink:href="#DejaVuSans-50"/>
       <use x="60.287109" xlink:href="#DejaVuSans-75"/>
       <use x="123.666016" xlink:href="#DejaVuSans-62"/>
       <use x="187.142578" xlink:href="#DejaVuSans-4d"/>
       <use x="273.421875" xlink:href="#DejaVuSans-65"/>
       <use x="334.945312" xlink:href="#DejaVuSans-64"/>
       <use x="398.421875" xlink:href="#DejaVuSans-42"/>
       <use x="467.025391" xlink:href="#DejaVuSans-65"/>
       <use x="528.548828" xlink:href="#DejaVuSans-72"/>
       <use x="569.662109" xlink:href="#DejaVuSans-74"/>
       <use x="608.871094" xlink:href="#DejaVuSans-20"/>
       <use x="640.658203" xlink:href="#DejaVuSans-4d"/>
       <use x="726.9375" xlink:href="#DejaVuSans-6f"/>
       <use x="788.119141" xlink:href="#DejaVuSans-64"/>
       <use x="851.595703" xlink:href="#DejaVuSans-65"/>
       <use x="913.119141" xlink:href="#DejaVuSans-6c"/>
       <use x="940.902344" xlink:href="#DejaVuSans-2b"/>
       <use x="1024.691406" xlink:href="#DejaVuSans-41"/>
       <use x="1093.083984" xlink:href="#DejaVuSans-64"/>
       <use x="1156.560547" xlink:href="#DejaVuSans-61"/>
       <use x="1217.839844" xlink:href="#DejaVuSans-70"/>
       <use x="1281.316406" xlink:href="#DejaVuSans-74"/>
       <use x="1320.525391" xlink:href="#DejaVuSans-65"/>
       <use x="1382.048828" xlink:href="#DejaVuSans-72"/>
       <use x="1423.162109" xlink:href="#DejaVuSans-20"/>
       <use x="1454.949219" xlink:href="#DejaVuSans-4c"/>
       <use x="1510.662109" xlink:href="#DejaVuSans-50"/>
       <use x="1570.964844" xlink:href="#DejaVuSans-5f"/>
       <use x="1620.964844" xlink:href="#DejaVuSans-4e"/>
       <use x="1695.769531" xlink:href="#DejaVuSans-42"/>
      </g>
     </g>
    </g>
    <g id="xtick_3">
     <g id="line2d_3">
      <g>
       <use style="stroke:#000000;stroke-width:0.8;" x="193.333926" xlink:href="#mf4e2714e6e" y="296.949079"/>
      </g>
     </g>
     <g id="text_3">
      <!-- PubMedBert Model+Adapter LP_FUL -->
      <defs>
       <path d="M 9.8125 72.90625 
L 51.703125 72.90625 
L 51.703125 64.59375 
L 19.671875 64.59375 
L 19.671875 43.109375 
L 48.578125 43.109375 
L 48.578125 34.8125 
L 19.671875 34.8125 
L 19.671875 0 
L 9.8125 0 
z
" id="DejaVuSans-46"/>
       <path d="M 8.6875 72.90625 
L 18.609375 72.90625 
L 18.609375 28.609375 
Q 18.609375 16.890625 22.84375 11.734375 
Q 27.09375 6.59375 36.625 6.59375 
Q 46.09375 6.59375 50.34375 11.734375 
Q 54.59375 16.890625 54.59375 28.609375 
L 54.59375 72.90625 
L 64.5 72.90625 
L 64.5 27.390625 
Q 64.5 13.140625 57.4375 5.859375 
Q 50.390625 -1.421875 36.625 -1.421875 
Q 22.796875 -1.421875 15.734375 5.859375 
Q 8.6875 13.140625 8.6875 27.390625 
z
" id="DejaVuSans-55"/>
      </defs>
      <g transform="translate(63.86157 437.127117)rotate(-45)scale(0.1 -0.1)">
       <use xlink:href="#DejaVuSans-50"/>
       <use x="60.287109" xlink:href="#DejaVuSans-75"/>
       <use x="123.666016" xlink:href="#DejaVuSans-62"/>
       <use x="187.142578" xlink:href="#DejaVuSans-4d"/>
       <use x="273.421875" xlink:href="#DejaVuSans-65"/>
       <use x="334.945312" xlink:href="#DejaVuSans-64"/>
       <use x="398.421875" xlink:href="#DejaVuSans-42"/>
       <use x="467.025391" xlink:href="#DejaVuSans-65"/>
       <use x="528.548828" xlink:href="#DejaVuSans-72"/>
       <use x="569.662109" xlink:href="#DejaVuSans-74"/>
       <use x="608.871094" xlink:href="#DejaVuSans-20"/>
       <use x="640.658203" xlink:href="#DejaVuSans-4d"/>
       <use x="726.9375" xlink:href="#DejaVuSans-6f"/>
       <use x="788.119141" xlink:href="#DejaVuSans-64"/>
       <use x="851.595703" xlink:href="#DejaVuSans-65"/>
       <use x="913.119141" xlink:href="#DejaVuSans-6c"/>
       <use x="940.902344" xlink:href="#DejaVuSans-2b"/>
       <use x="1024.691406" xlink:href="#DejaVuSans-41"/>
       <use x="1093.083984" xlink:href="#DejaVuSans-64"/>
       <use x="1156.560547" xlink:href="#DejaVuSans-61"/>
       <use x="1217.839844" xlink:href="#DejaVuSans-70"/>
       <use x="1281.316406" xlink:href="#DejaVuSans-74"/>
       <use x="1320.525391" xlink:href="#DejaVuSans-65"/>
       <use x="1382.048828" xlink:href="#DejaVuSans-72"/>
       <use x="1423.162109" xlink:href="#DejaVuSans-20"/>
       <use x="1454.949219" xlink:href="#DejaVuSans-4c"/>
       <use x="1510.662109" xlink:href="#DejaVuSans-50"/>
       <use x="1570.964844" xlink:href="#DejaVuSans-5f"/>
       <use x="1620.964844" xlink:href="#DejaVuSans-46"/>
       <use x="1678.484375" xlink:href="#DejaVuSans-55"/>
       <use x="1751.677734" xlink:href="#DejaVuSans-4c"/>
      </g>
     </g>
    </g>
    <g id="xtick_4">
     <g id="line2d_4">
      <g>
       <use style="stroke:#000000;stroke-width:0.8;" x="233.166032" xlink:href="#mf4e2714e6e" y="296.949079"/>
      </g>
     </g>
     <g id="text_4">
      <!-- PubMedBert Model+Adapter LP_Rel -->
      <defs>
       <path d="M 44.390625 34.1875 
Q 47.5625 33.109375 50.5625 29.59375 
Q 53.5625 26.078125 56.59375 19.921875 
L 66.609375 0 
L 56 0 
L 46.6875 18.703125 
Q 43.0625 26.03125 39.671875 28.421875 
Q 36.28125 30.8125 30.421875 30.8125 
L 19.671875 30.8125 
L 19.671875 0 
L 9.8125 0 
L 9.8125 72.90625 
L 32.078125 72.90625 
Q 44.578125 72.90625 50.734375 67.671875 
Q 56.890625 62.453125 56.890625 51.90625 
Q 56.890625 45.015625 53.6875 40.46875 
Q 50.484375 35.9375 44.390625 34.1875 
z
M 19.671875 64.796875 
L 19.671875 38.921875 
L 32.078125 38.921875 
Q 39.203125 38.921875 42.84375 42.21875 
Q 46.484375 45.515625 46.484375 51.90625 
Q 46.484375 58.296875 42.84375 61.546875 
Q 39.203125 64.796875 32.078125 64.796875 
z
" id="DejaVuSans-52"/>
      </defs>
      <g transform="translate(105.651477 435.169315)rotate(-45)scale(0.1 -0.1)">
       <use xlink:href="#DejaVuSans-50"/>
       <use x="60.287109" xlink:href="#DejaVuSans-75"/>
       <use x="123.666016" xlink:href="#DejaVuSans-62"/>
       <use x="187.142578" xlink:href="#DejaVuSans-4d"/>
       <use x="273.421875" xlink:href="#DejaVuSans-65"/>
       <use x="334.945312" xlink:href="#DejaVuSans-64"/>
       <use x="398.421875" xlink:href="#DejaVuSans-42"/>
       <use x="467.025391" xlink:href="#DejaVuSans-65"/>
       <use x="528.548828" xlink:href="#DejaVuSans-72"/>
       <use x="569.662109" xlink:href="#DejaVuSans-74"/>
       <use x="608.871094" xlink:href="#DejaVuSans-20"/>
       <use x="640.658203" xlink:href="#DejaVuSans-4d"/>
       <use x="726.9375" xlink:href="#DejaVuSans-6f"/>
       <use x="788.119141" xlink:href="#DejaVuSans-64"/>
       <use x="851.595703" xlink:href="#DejaVuSans-65"/>
       <use x="913.119141" xlink:href="#DejaVuSans-6c"/>
       <use x="940.902344" xlink:href="#DejaVuSans-2b"/>
       <use x="1024.691406" xlink:href="#DejaVuSans-41"/>
       <use x="1093.083984" xlink:href="#DejaVuSans-64"/>
       <use x="1156.560547" xlink:href="#DejaVuSans-61"/>
       <use x="1217.839844" xlink:href="#DejaVuSans-70"/>
       <use x="1281.316406" xlink:href="#DejaVuSans-74"/>
       <use x="1320.525391" xlink:href="#DejaVuSans-65"/>
       <use x="1382.048828" xlink:href="#DejaVuSans-72"/>
       <use x="1423.162109" xlink:href="#DejaVuSans-20"/>
       <use x="1454.949219" xlink:href="#DejaVuSans-4c"/>
       <use x="1510.662109" xlink:href="#DejaVuSans-50"/>
       <use x="1570.964844" xlink:href="#DejaVuSans-5f"/>
       <use x="1620.964844" xlink:href="#DejaVuSans-52"/>
       <use x="1690.384766" xlink:href="#DejaVuSans-65"/>
       <use x="1751.908203" xlink:href="#DejaVuSans-6c"/>
      </g>
     </g>
    </g>
    <g id="xtick_5">
     <g id="line2d_5">
      <g>
       <use style="stroke:#000000;stroke-width:0.8;" x="272.998137" xlink:href="#mf4e2714e6e" y="296.949079"/>
      </g>
     </g>
     <g id="text_5">
      <!-- PubMedBert only model -->
      <defs>
       <path d="M 54.890625 33.015625 
L 54.890625 0 
L 45.90625 0 
L 45.90625 32.71875 
Q 45.90625 40.484375 42.875 44.328125 
Q 39.84375 48.1875 33.796875 48.1875 
Q 26.515625 48.1875 22.3125 43.546875 
Q 18.109375 38.921875 18.109375 30.90625 
L 18.109375 0 
L 9.078125 0 
L 9.078125 54.6875 
L 18.109375 54.6875 
L 18.109375 46.1875 
Q 21.34375 51.125 25.703125 53.5625 
Q 30.078125 56 35.796875 56 
Q 45.21875 56 50.046875 50.171875 
Q 54.890625 44.34375 54.890625 33.015625 
z
" id="DejaVuSans-6e"/>
       <path d="M 32.171875 -5.078125 
Q 28.375 -14.84375 24.75 -17.8125 
Q 21.140625 -20.796875 15.09375 -20.796875 
L 7.90625 -20.796875 
L 7.90625 -13.28125 
L 13.1875 -13.28125 
Q 16.890625 -13.28125 18.9375 -11.515625 
Q 21 -9.765625 23.484375 -3.21875 
L 25.09375 0.875 
L 2.984375 54.6875 
L 12.5 54.6875 
L 29.59375 11.921875 
L 46.6875 54.6875 
L 56.203125 54.6875 
z
" id="DejaVuSans-79"/>
       <path d="M 52 44.1875 
Q 55.375 50.25 60.0625 53.125 
Q 64.75 56 71.09375 56 
Q 79.640625 56 84.28125 50.015625 
Q 88.921875 44.046875 88.921875 33.015625 
L 88.921875 0 
L 79.890625 0 
L 79.890625 32.71875 
Q 79.890625 40.578125 77.09375 44.375 
Q 74.3125 48.1875 68.609375 48.1875 
Q 61.625 48.1875 57.5625 43.546875 
Q 53.515625 38.921875 53.515625 30.90625 
L 53.515625 0 
L 44.484375 0 
L 44.484375 32.71875 
Q 44.484375 40.625 41.703125 44.40625 
Q 38.921875 48.1875 33.109375 48.1875 
Q 26.21875 48.1875 22.15625 43.53125 
Q 18.109375 38.875 18.109375 30.90625 
L 18.109375 0 
L 9.078125 0 
L 9.078125 54.6875 
L 18.109375 54.6875 
L 18.109375 46.1875 
Q 21.1875 51.21875 25.484375 53.609375 
Q 29.78125 56 35.6875 56 
Q 41.65625 56 45.828125 52.96875 
Q 50 49.953125 52 44.1875 
z
" id="DejaVuSans-6d"/>
      </defs>
      <g transform="translate(187.001799 393.847762)rotate(-45)scale(0.1 -0.1)">
       <use xlink:href="#DejaVuSans-50"/>
       <use x="60.287109" xlink:href="#DejaVuSans-75"/>
       <use x="123.666016" xlink:href="#DejaVuSans-62"/>
       <use x="187.142578" xlink:href="#DejaVuSans-4d"/>
       <use x="273.421875" xlink:href="#DejaVuSans-65"/>
       <use x="334.945312" xlink:href="#DejaVuSans-64"/>
       <use x="398.421875" xlink:href="#DejaVuSans-42"/>
       <use x="467.025391" xlink:href="#DejaVuSans-65"/>
       <use x="528.548828" xlink:href="#DejaVuSans-72"/>
       <use x="569.662109" xlink:href="#DejaVuSans-74"/>
       <use x="608.871094" xlink:href="#DejaVuSans-20"/>
       <use x="640.658203" xlink:href="#DejaVuSans-6f"/>
       <use x="701.839844" xlink:href="#DejaVuSans-6e"/>
       <use x="765.21875" xlink:href="#DejaVuSans-6c"/>
       <use x="793.001953" xlink:href="#DejaVuSans-79"/>
       <use x="852.181641" xlink:href="#DejaVuSans-20"/>
       <use x="883.96875" xlink:href="#DejaVuSans-6d"/>
       <use x="981.380859" xlink:href="#DejaVuSans-6f"/>
       <use x="1042.5625" xlink:href="#DejaVuSans-64"/>
       <use x="1106.039062" xlink:href="#DejaVuSans-65"/>
       <use x="1167.5625" xlink:href="#DejaVuSans-6c"/>
      </g>
     </g>
    </g>
    <g id="xtick_6">
     <g id="line2d_6">
      <g>
       <use style="stroke:#000000;stroke-width:0.8;" x="591.654979" xlink:href="#mf4e2714e6e" y="296.949079"/>
      </g>
     </g>
     <g id="text_6">
      <!-- BioBert Model+Adapter EP_NB -->
      <defs>
       <path d="M 9.421875 54.6875 
L 18.40625 54.6875 
L 18.40625 0 
L 9.421875 0 
z
M 9.421875 75.984375 
L 18.40625 75.984375 
L 18.40625 64.59375 
L 9.421875 64.59375 
z
" id="DejaVuSans-69"/>
      </defs>
      <g transform="translate(481.726391 417.583348)rotate(-45)scale(0.1 -0.1)">
       <use xlink:href="#DejaVuSans-42"/>
       <use x="68.603516" xlink:href="#DejaVuSans-69"/>
       <use x="96.386719" xlink:href="#DejaVuSans-6f"/>
       <use x="157.568359" xlink:href="#DejaVuSans-42"/>
       <use x="226.171875" xlink:href="#DejaVuSans-65"/>
       <use x="287.695312" xlink:href="#DejaVuSans-72"/>
       <use x="328.808594" xlink:href="#DejaVuSans-74"/>
       <use x="368.017578" xlink:href="#DejaVuSans-20"/>
       <use x="399.804688" xlink:href="#DejaVuSans-4d"/>
       <use x="486.083984" xlink:href="#DejaVuSans-6f"/>
       <use x="547.265625" xlink:href="#DejaVuSans-64"/>
       <use x="610.742188" xlink:href="#DejaVuSans-65"/>
       <use x="672.265625" xlink:href="#DejaVuSans-6c"/>
       <use x="700.048828" xlink:href="#DejaVuSans-2b"/>
       <use x="783.837891" xlink:href="#DejaVuSans-41"/>
       <use x="852.230469" xlink:href="#DejaVuSans-64"/>
       <use x="915.707031" xlink:href="#DejaVuSans-61"/>
       <use x="976.986328" xlink:href="#DejaVuSans-70"/>
       <use x="1040.462891" xlink:href="#DejaVuSans-74"/>
       <use x="1079.671875" xlink:href="#DejaVuSans-65"/>
       <use x="1141.195312" xlink:href="#DejaVuSans-72"/>
       <use x="1182.308594" xlink:href="#DejaVuSans-20"/>
       <use x="1214.095703" xlink:href="#DejaVuSans-45"/>
       <use x="1277.279297" xlink:href="#DejaVuSans-50"/>
       <use x="1337.582031" xlink:href="#DejaVuSans-5f"/>
       <use x="1387.582031" xlink:href="#DejaVuSans-4e"/>
       <use x="1462.386719" xlink:href="#DejaVuSans-42"/>
      </g>
     </g>
    </g>
    <g id="xtick_7">
     <g id="line2d_7">
      <g>
       <use style="stroke:#000000;stroke-width:0.8;" x="631.487084" xlink:href="#mf4e2714e6e" y="296.949079"/>
      </g>
     </g>
     <g id="text_7">
      <!-- BioBert Model+Adapter LP_NB -->
      <g transform="translate(522.086617 417.055228)rotate(-45)scale(0.1 -0.1)">
       <use xlink:href="#DejaVuSans-42"/>
       <use x="68.603516" xlink:href="#DejaVuSans-69"/>
       <use x="96.386719" xlink:href="#DejaVuSans-6f"/>
       <use x="157.568359" xlink:href="#DejaVuSans-42"/>
       <use x="226.171875" xlink:href="#DejaVuSans-65"/>
       <use x="287.695312" xlink:href="#DejaVuSans-72"/>
       <use x="328.808594" xlink:href="#DejaVuSans-74"/>
       <use x="368.017578" xlink:href="#DejaVuSans-20"/>
       <use x="399.804688" xlink:href="#DejaVuSans-4d"/>
       <use x="486.083984" xlink:href="#DejaVuSans-6f"/>
       <use x="547.265625" xlink:href="#DejaVuSans-64"/>
       <use x="610.742188" xlink:href="#DejaVuSans-65"/>
       <use x="672.265625" xlink:href="#DejaVuSans-6c"/>
       <use x="700.048828" xlink:href="#DejaVuSans-2b"/>
       <use x="783.837891" xlink:href="#DejaVuSans-41"/>
       <use x="852.230469" xlink:href="#DejaVuSans-64"/>
       <use x="915.707031" xlink:href="#DejaVuSans-61"/>
       <use x="976.986328" xlink:href="#DejaVuSans-70"/>
       <use x="1040.462891" xlink:href="#DejaVuSans-74"/>
       <use x="1079.671875" xlink:href="#DejaVuSans-65"/>
       <use x="1141.195312" xlink:href="#DejaVuSans-72"/>
       <use x="1182.308594" xlink:href="#DejaVuSans-20"/>
       <use x="1214.095703" xlink:href="#DejaVuSans-4c"/>
       <use x="1269.808594" xlink:href="#DejaVuSans-50"/>
       <use x="1330.111328" xlink:href="#DejaVuSans-5f"/>
       <use x="1380.111328" xlink:href="#DejaVuSans-4e"/>
       <use x="1454.916016" xlink:href="#DejaVuSans-42"/>
      </g>
     </g>
    </g>
    <g id="xtick_8">
     <g id="line2d_8">
      <g>
       <use style="stroke:#000000;stroke-width:0.8;" x="671.319189" xlink:href="#mf4e2714e6e" y="296.949079"/>
      </g>
     </g>
     <g id="text_8">
      <!-- BioBert Model+Adapter LP_FUL -->
      <g transform="translate(558.878163 420.095787)rotate(-45)scale(0.1 -0.1)">
       <use xlink:href="#DejaVuSans-42"/>
       <use x="68.603516" xlink:href="#DejaVuSans-69"/>
       <use x="96.386719" xlink:href="#DejaVuSans-6f"/>
       <use x="157.568359" xlink:href="#DejaVuSans-42"/>
       <use x="226.171875" xlink:href="#DejaVuSans-65"/>
       <use x="287.695312" xlink:href="#DejaVuSans-72"/>
       <use x="328.808594" xlink:href="#DejaVuSans-74"/>
       <use x="368.017578" xlink:href="#DejaVuSans-20"/>
       <use x="399.804688" xlink:href="#DejaVuSans-4d"/>
       <use x="486.083984" xlink:href="#DejaVuSans-6f"/>
       <use x="547.265625" xlink:href="#DejaVuSans-64"/>
       <use x="610.742188" xlink:href="#DejaVuSans-65"/>
       <use x="672.265625" xlink:href="#DejaVuSans-6c"/>
       <use x="700.048828" xlink:href="#DejaVuSans-2b"/>
       <use x="783.837891" xlink:href="#DejaVuSans-41"/>
       <use x="852.230469" xlink:href="#DejaVuSans-64"/>
       <use x="915.707031" xlink:href="#DejaVuSans-61"/>
       <use x="976.986328" xlink:href="#DejaVuSans-70"/>
       <use x="1040.462891" xlink:href="#DejaVuSans-74"/>
       <use x="1079.671875" xlink:href="#DejaVuSans-65"/>
       <use x="1141.195312" xlink:href="#DejaVuSans-72"/>
       <use x="1182.308594" xlink:href="#DejaVuSans-20"/>
       <use x="1214.095703" xlink:href="#DejaVuSans-4c"/>
       <use x="1269.808594" xlink:href="#DejaVuSans-50"/>
       <use x="1330.111328" xlink:href="#DejaVuSans-5f"/>
       <use x="1380.111328" xlink:href="#DejaVuSans-46"/>
       <use x="1437.630859" xlink:href="#DejaVuSans-55"/>
       <use x="1510.824219" xlink:href="#DejaVuSans-4c"/>
      </g>
     </g>
    </g>
    <g id="xtick_9">
     <g id="line2d_9">
      <g>
       <use style="stroke:#000000;stroke-width:0.8;" x="711.151295" xlink:href="#mf4e2714e6e" y="296.949079"/>
      </g>
     </g>
     <g id="text_9">
      <!-- BioBert only model -->
      <g transform="translate(642.186286 376.816432)rotate(-45)scale(0.1 -0.1)">
       <use xlink:href="#DejaVuSans-42"/>
       <use x="68.603516" xlink:href="#DejaVuSans-69"/>
       <use x="96.386719" xlink:href="#DejaVuSans-6f"/>
       <use x="157.568359" xlink:href="#DejaVuSans-42"/>
       <use x="226.171875" xlink:href="#DejaVuSans-65"/>
       <use x="287.695312" xlink:href="#DejaVuSans-72"/>
       <use x="328.808594" xlink:href="#DejaVuSans-74"/>
       <use x="368.017578" xlink:href="#DejaVuSans-20"/>
       <use x="399.804688" xlink:href="#DejaVuSans-6f"/>
       <use x="460.986328" xlink:href="#DejaVuSans-6e"/>
       <use x="524.365234" xlink:href="#DejaVuSans-6c"/>
       <use x="552.148438" xlink:href="#DejaVuSans-79"/>
       <use x="611.328125" xlink:href="#DejaVuSans-20"/>
       <use x="643.115234" xlink:href="#DejaVuSans-6d"/>
       <use x="740.527344" xlink:href="#DejaVuSans-6f"/>
       <use x="801.708984" xlink:href="#DejaVuSans-64"/>
       <use x="865.185547" xlink:href="#DejaVuSans-65"/>
       <use x="926.708984" xlink:href="#DejaVuSans-6c"/>
      </g>
     </g>
    </g>
   </g>
   <g id="matplotlib.axis_2">
    <g id="ytick_1">
     <g id="line2d_10">
      <defs>
       <path d="M 0 0 
L -3.5 0 
" id="m134b09129c" style="stroke:#000000;stroke-width:0.8;"/>
      </defs>
      <g>
       <use style="stroke:#000000;stroke-width:0.8;" x="73.837611" xlink:href="#m134b09129c" y="261.877845"/>
      </g>
     </g>
     <g id="text_10">
      <!-- 0.45 -->
      <defs>
       <path d="M 31.78125 66.40625 
Q 24.171875 66.40625 20.328125 58.90625 
Q 16.5 51.421875 16.5 36.375 
Q 16.5 21.390625 20.328125 13.890625 
Q 24.171875 6.390625 31.78125 6.390625 
Q 39.453125 6.390625 43.28125 13.890625 
Q 47.125 21.390625 47.125 36.375 
Q 47.125 51.421875 43.28125 58.90625 
Q 39.453125 66.40625 31.78125 66.40625 
z
M 31.78125 74.21875 
Q 44.046875 74.21875 50.515625 64.515625 
Q 56.984375 54.828125 56.984375 36.375 
Q 56.984375 17.96875 50.515625 8.265625 
Q 44.046875 -1.421875 31.78125 -1.421875 
Q 19.53125 -1.421875 13.0625 8.265625 
Q 6.59375 17.96875 6.59375 36.375 
Q 6.59375 54.828125 13.0625 64.515625 
Q 19.53125 74.21875 31.78125 74.21875 
z
" id="DejaVuSans-30"/>
       <path d="M 10.6875 12.40625 
L 21 12.40625 
L 21 0 
L 10.6875 0 
z
" id="DejaVuSans-2e"/>
       <path d="M 37.796875 64.3125 
L 12.890625 25.390625 
L 37.796875 25.390625 
z
M 35.203125 72.90625 
L 47.609375 72.90625 
L 47.609375 25.390625 
L 58.015625 25.390625 
L 58.015625 17.1875 
L 47.609375 17.1875 
L 47.609375 0 
L 37.796875 0 
L 37.796875 17.1875 
L 4.890625 17.1875 
L 4.890625 26.703125 
z
" id="DejaVuSans-34"/>
       <path d="M 10.796875 72.90625 
L 49.515625 72.90625 
L 49.515625 64.59375 
L 19.828125 64.59375 
L 19.828125 46.734375 
Q 21.96875 47.46875 24.109375 47.828125 
Q 26.265625 48.1875 28.421875 48.1875 
Q 40.625 48.1875 47.75 41.5 
Q 54.890625 34.8125 54.890625 23.390625 
Q 54.890625 11.625 47.5625 5.09375 
Q 40.234375 -1.421875 26.90625 -1.421875 
Q 22.3125 -1.421875 17.546875 -0.640625 
Q 12.796875 0.140625 7.71875 1.703125 
L 7.71875 11.625 
Q 12.109375 9.234375 16.796875 8.0625 
Q 21.484375 6.890625 26.703125 6.890625 
Q 35.15625 6.890625 40.078125 11.328125 
Q 45.015625 15.765625 45.015625 23.390625 
Q 45.015625 31 40.078125 35.4375 
Q 35.15625 39.890625 26.703125 39.890625 
Q 22.75 39.890625 18.8125 39.015625 
Q 14.890625 38.140625 10.796875 36.28125 
z
" id="DejaVuSans-35"/>
      </defs>
      <g transform="translate(44.571986 265.677063)scale(0.1 -0.1)">
       <use xlink:href="#DejaVuSans-30"/>
       <use x="63.623047" xlink:href="#DejaVuSans-2e"/>
       <use x="95.410156" xlink:href="#DejaVuSans-34"/>
       <use x="159.033203" xlink:href="#DejaVuSans-35"/>
      </g>
     </g>
    </g>
    <g id="ytick_2">
     <g id="line2d_11">
      <g>
       <use style="stroke:#000000;stroke-width:0.8;" x="73.837611" xlink:href="#m134b09129c" y="224.568021"/>
      </g>
     </g>
     <g id="text_11">
      <!-- 0.50 -->
      <g transform="translate(44.571986 228.36724)scale(0.1 -0.1)">
       <use xlink:href="#DejaVuSans-30"/>
       <use x="63.623047" xlink:href="#DejaVuSans-2e"/>
       <use x="95.410156" xlink:href="#DejaVuSans-35"/>
       <use x="159.033203" xlink:href="#DejaVuSans-30"/>
      </g>
     </g>
    </g>
    <g id="ytick_3">
     <g id="line2d_12">
      <g>
       <use style="stroke:#000000;stroke-width:0.8;" x="73.837611" xlink:href="#m134b09129c" y="187.258198"/>
      </g>
     </g>
     <g id="text_12">
      <!-- 0.55 -->
      <g transform="translate(44.571986 191.057417)scale(0.1 -0.1)">
       <use xlink:href="#DejaVuSans-30"/>
       <use x="63.623047" xlink:href="#DejaVuSans-2e"/>
       <use x="95.410156" xlink:href="#DejaVuSans-35"/>
       <use x="159.033203" xlink:href="#DejaVuSans-35"/>
      </g>
     </g>
    </g>
    <g id="ytick_4">
     <g id="line2d_13">
      <g>
       <use style="stroke:#000000;stroke-width:0.8;" x="73.837611" xlink:href="#m134b09129c" y="149.948375"/>
      </g>
     </g>
     <g id="text_13">
      <!-- 0.60 -->
      <defs>
       <path d="M 33.015625 40.375 
Q 26.375 40.375 22.484375 35.828125 
Q 18.609375 31.296875 18.609375 23.390625 
Q 18.609375 15.53125 22.484375 10.953125 
Q 26.375 6.390625 33.015625 6.390625 
Q 39.65625 6.390625 43.53125 10.953125 
Q 47.40625 15.53125 47.40625 23.390625 
Q 47.40625 31.296875 43.53125 35.828125 
Q 39.65625 40.375 33.015625 40.375 
z
M 52.59375 71.296875 
L 52.59375 62.3125 
Q 48.875 64.0625 45.09375 64.984375 
Q 41.3125 65.921875 37.59375 65.921875 
Q 27.828125 65.921875 22.671875 59.328125 
Q 17.53125 52.734375 16.796875 39.40625 
Q 19.671875 43.65625 24.015625 45.921875 
Q 28.375 48.1875 33.59375 48.1875 
Q 44.578125 48.1875 50.953125 41.515625 
Q 57.328125 34.859375 57.328125 23.390625 
Q 57.328125 12.15625 50.6875 5.359375 
Q 44.046875 -1.421875 33.015625 -1.421875 
Q 20.359375 -1.421875 13.671875 8.265625 
Q 6.984375 17.96875 6.984375 36.375 
Q 6.984375 53.65625 15.1875 63.9375 
Q 23.390625 74.21875 37.203125 74.21875 
Q 40.921875 74.21875 44.703125 73.484375 
Q 48.484375 72.75 52.59375 71.296875 
z
" id="DejaVuSans-36"/>
      </defs>
      <g transform="translate(44.571986 153.747593)scale(0.1 -0.1)">
       <use xlink:href="#DejaVuSans-30"/>
       <use x="63.623047" xlink:href="#DejaVuSans-2e"/>
       <use x="95.410156" xlink:href="#DejaVuSans-36"/>
       <use x="159.033203" xlink:href="#DejaVuSans-30"/>
      </g>
     </g>
    </g>
    <g id="ytick_5">
     <g id="line2d_14">
      <g>
       <use style="stroke:#000000;stroke-width:0.8;" x="73.837611" xlink:href="#m134b09129c" y="112.638551"/>
      </g>
     </g>
     <g id="text_14">
      <!-- 0.65 -->
      <g transform="translate(44.571986 116.43777)scale(0.1 -0.1)">
       <use xlink:href="#DejaVuSans-30"/>
       <use x="63.623047" xlink:href="#DejaVuSans-2e"/>
       <use x="95.410156" xlink:href="#DejaVuSans-36"/>
       <use x="159.033203" xlink:href="#DejaVuSans-35"/>
      </g>
     </g>
    </g>
    <g id="ytick_6">
     <g id="line2d_15">
      <g>
       <use style="stroke:#000000;stroke-width:0.8;" x="73.837611" xlink:href="#m134b09129c" y="75.328728"/>
      </g>
     </g>
     <g id="text_15">
      <!-- 0.70 -->
      <defs>
       <path d="M 8.203125 72.90625 
L 55.078125 72.90625 
L 55.078125 68.703125 
L 28.609375 0 
L 18.3125 0 
L 43.21875 64.59375 
L 8.203125 64.59375 
z
" id="DejaVuSans-37"/>
      </defs>
      <g transform="translate(44.571986 79.127947)scale(0.1 -0.1)">
       <use xlink:href="#DejaVuSans-30"/>
       <use x="63.623047" xlink:href="#DejaVuSans-2e"/>
       <use x="95.410156" xlink:href="#DejaVuSans-37"/>
       <use x="159.033203" xlink:href="#DejaVuSans-30"/>
      </g>
     </g>
    </g>
    <g id="ytick_7">
     <g id="line2d_16">
      <g>
       <use style="stroke:#000000;stroke-width:0.8;" x="73.837611" xlink:href="#m134b09129c" y="38.018905"/>
      </g>
     </g>
     <g id="text_16">
      <!-- 0.75 -->
      <g transform="translate(44.571986 41.818123)scale(0.1 -0.1)">
       <use xlink:href="#DejaVuSans-30"/>
       <use x="63.623047" xlink:href="#DejaVuSans-2e"/>
       <use x="95.410156" xlink:href="#DejaVuSans-37"/>
       <use x="159.033203" xlink:href="#DejaVuSans-35"/>
      </g>
     </g>
    </g>
    <g id="text_17">
     <!-- Accuracy -->
     <defs>
      <path d="M 48.78125 52.59375 
L 48.78125 44.1875 
Q 44.96875 46.296875 41.140625 47.34375 
Q 37.3125 48.390625 33.40625 48.390625 
Q 24.65625 48.390625 19.8125 42.84375 
Q 14.984375 37.3125 14.984375 27.296875 
Q 14.984375 17.28125 19.8125 11.734375 
Q 24.65625 6.203125 33.40625 6.203125 
Q 37.3125 6.203125 41.140625 7.25 
Q 44.96875 8.296875 48.78125 10.40625 
L 48.78125 2.09375 
Q 45.015625 0.34375 40.984375 -0.53125 
Q 36.96875 -1.421875 32.421875 -1.421875 
Q 20.0625 -1.421875 12.78125 6.34375 
Q 5.515625 14.109375 5.515625 27.296875 
Q 5.515625 40.671875 12.859375 48.328125 
Q 20.21875 56 33.015625 56 
Q 37.15625 56 41.109375 55.140625 
Q 45.0625 54.296875 48.78125 52.59375 
z
" id="DejaVuSans-63"/>
     </defs>
     <g transform="translate(38.492298 180.325183)rotate(-90)scale(0.1 -0.1)">
      <use xlink:href="#DejaVuSans-41"/>
      <use x="68.392578" xlink:href="#DejaVuSans-63"/>
      <use x="123.373047" xlink:href="#DejaVuSans-63"/>
      <use x="178.353516" xlink:href="#DejaVuSans-75"/>
      <use x="241.732422" xlink:href="#DejaVuSans-72"/>
      <use x="282.845703" xlink:href="#DejaVuSans-61"/>
      <use x="344.125" xlink:href="#DejaVuSans-63"/>
      <use x="399.105469" xlink:href="#DejaVuSans-79"/>
     </g>
    </g>
   </g>
   <g id="line2d_17">
    <path clip-path="url(#pb63a508a9a)" d="M 113.669716 138.755428 
L 113.669716 209.644092 
" style="fill:none;stroke:#000000;stroke-linecap:square;"/>
   </g>
   <g id="line2d_18">
    <path clip-path="url(#pb63a508a9a)" d="M 113.669716 45.480869 
L 113.669716 30.55694 
" style="fill:none;stroke:#000000;stroke-linecap:square;"/>
   </g>
   <g id="line2d_19">
    <path clip-path="url(#pb63a508a9a)" d="M 107.6949 209.644092 
L 119.644532 209.644092 
" style="fill:none;stroke:#000000;stroke-linecap:square;"/>
   </g>
   <g id="line2d_20">
    <path clip-path="url(#pb63a508a9a)" d="M 107.6949 30.55694 
L 119.644532 30.55694 
" style="fill:none;stroke:#000000;stroke-linecap:square;"/>
   </g>
   <g id="line2d_21"/>
   <g id="line2d_22">
    <path clip-path="url(#pb63a508a9a)" d="M 153.501821 164.872304 
L 153.501821 239.491951 
" style="fill:none;stroke:#000000;stroke-linecap:square;"/>
   </g>
   <g id="line2d_23">
    <path clip-path="url(#pb63a508a9a)" d="M 153.501821 79.05971 
L 153.501821 60.404799 
" style="fill:none;stroke:#000000;stroke-linecap:square;"/>
   </g>
   <g id="line2d_24">
    <path clip-path="url(#pb63a508a9a)" d="M 147.527005 239.491951 
L 159.476637 239.491951 
" style="fill:none;stroke:#000000;stroke-linecap:square;"/>
   </g>
   <g id="line2d_25">
    <path clip-path="url(#pb63a508a9a)" d="M 147.527005 60.404799 
L 159.476637 60.404799 
" style="fill:none;stroke:#000000;stroke-linecap:square;"/>
   </g>
   <g id="line2d_26"/>
   <g id="line2d_27">
    <path clip-path="url(#pb63a508a9a)" d="M 193.333926 161.141322 
L 193.333926 224.568021 
" style="fill:none;stroke:#000000;stroke-linecap:square;"/>
   </g>
   <g id="line2d_28">
    <path clip-path="url(#pb63a508a9a)" d="M 193.333926 105.176587 
L 193.333926 60.404799 
" style="fill:none;stroke:#000000;stroke-linecap:square;"/>
   </g>
   <g id="line2d_29">
    <path clip-path="url(#pb63a508a9a)" d="M 187.359111 224.568021 
L 199.308742 224.568021 
" style="fill:none;stroke:#000000;stroke-linecap:square;"/>
   </g>
   <g id="line2d_30">
    <path clip-path="url(#pb63a508a9a)" d="M 187.359111 60.404799 
L 199.308742 60.404799 
" style="fill:none;stroke:#000000;stroke-linecap:square;"/>
   </g>
   <g id="line2d_31"/>
   <g id="line2d_32">
    <path clip-path="url(#pb63a508a9a)" d="M 233.166032 131.293463 
L 233.166032 179.796233 
" style="fill:none;stroke:#000000;stroke-linecap:square;"/>
   </g>
   <g id="line2d_33">
    <path clip-path="url(#pb63a508a9a)" d="M 233.166032 90.252657 
L 233.166032 30.55694 
" style="fill:none;stroke:#000000;stroke-linecap:square;"/>
   </g>
   <g id="line2d_34">
    <path clip-path="url(#pb63a508a9a)" d="M 227.191216 179.796233 
L 239.140847 179.796233 
" style="fill:none;stroke:#000000;stroke-linecap:square;"/>
   </g>
   <g id="line2d_35">
    <path clip-path="url(#pb63a508a9a)" d="M 227.191216 30.55694 
L 239.140847 30.55694 
" style="fill:none;stroke:#000000;stroke-linecap:square;"/>
   </g>
   <g id="line2d_36">
    <defs>
     <path d="M 0 3 
C 0.795609 3 1.55874 2.683901 2.12132 2.12132 
C 2.683901 1.55874 3 0.795609 3 0 
C 3 -0.795609 2.683901 -1.55874 2.12132 -2.12132 
C 1.55874 -2.683901 0.795609 -3 0 -3 
C -0.795609 -3 -1.55874 -2.683901 -2.12132 -2.12132 
C -2.683901 -1.55874 -3 -0.795609 -3 0 
C -3 0.795609 -2.683901 1.55874 -2.12132 2.12132 
C -1.55874 2.683901 -0.795609 3 0 3 
z
" id="mfbd5d239a4" style="stroke:#000000;"/>
    </defs>
    <g clip-path="url(#pb63a508a9a)">
     <use style="fill-opacity:0;stroke:#000000;" x="233.166032" xlink:href="#mfbd5d239a4" y="224.568021"/>
    </g>
   </g>
   <g id="line2d_37">
    <path clip-path="url(#pb63a508a9a)" d="M 272.998137 131.293463 
L 272.998137 209.644092 
" style="fill:none;stroke:#000000;stroke-linecap:square;"/>
   </g>
   <g id="line2d_38">
    <path clip-path="url(#pb63a508a9a)" d="M 272.998137 79.05971 
L 272.998137 45.480869 
" style="fill:none;stroke:#000000;stroke-linecap:square;"/>
   </g>
   <g id="line2d_39">
    <path clip-path="url(#pb63a508a9a)" d="M 267.023321 209.644092 
L 278.972953 209.644092 
" style="fill:none;stroke:#000000;stroke-linecap:square;"/>
   </g>
   <g id="line2d_40">
    <path clip-path="url(#pb63a508a9a)" d="M 267.023321 45.480869 
L 278.972953 45.480869 
" style="fill:none;stroke:#000000;stroke-linecap:square;"/>
   </g>
   <g id="line2d_41"/>
   <g id="line2d_42">
    <path clip-path="url(#pb63a508a9a)" d="M 591.654979 164.872304 
L 591.654979 179.796233 
" style="fill:none;stroke:#000000;stroke-linecap:square;"/>
   </g>
   <g id="line2d_43">
    <path clip-path="url(#pb63a508a9a)" d="M 591.654979 127.562481 
L 591.654979 90.252657 
" style="fill:none;stroke:#000000;stroke-linecap:square;"/>
   </g>
   <g id="line2d_44">
    <path clip-path="url(#pb63a508a9a)" d="M 585.680163 179.796233 
L 597.629795 179.796233 
" style="fill:none;stroke:#000000;stroke-linecap:square;"/>
   </g>
   <g id="line2d_45">
    <path clip-path="url(#pb63a508a9a)" d="M 585.680163 90.252657 
L 597.629795 90.252657 
" style="fill:none;stroke:#000000;stroke-linecap:square;"/>
   </g>
   <g id="line2d_46">
    <g clip-path="url(#pb63a508a9a)">
     <use style="fill-opacity:0;stroke:#000000;" x="591.654979" xlink:href="#mfbd5d239a4" y="60.404799"/>
    </g>
   </g>
   <g id="line2d_47">
    <path clip-path="url(#pb63a508a9a)" d="M 631.487084 149.948375 
L 631.487084 164.872304 
" style="fill:none;stroke:#000000;stroke-linecap:square;"/>
   </g>
   <g id="line2d_48">
    <path clip-path="url(#pb63a508a9a)" d="M 631.487084 123.831498 
L 631.487084 90.252657 
" style="fill:none;stroke:#000000;stroke-linecap:square;"/>
   </g>
   <g id="line2d_49">
    <path clip-path="url(#pb63a508a9a)" d="M 625.512268 164.872304 
L 637.4619 164.872304 
" style="fill:none;stroke:#000000;stroke-linecap:square;"/>
   </g>
   <g id="line2d_50">
    <path clip-path="url(#pb63a508a9a)" d="M 625.512268 90.252657 
L 637.4619 90.252657 
" style="fill:none;stroke:#000000;stroke-linecap:square;"/>
   </g>
   <g id="line2d_51">
    <g clip-path="url(#pb63a508a9a)">
     <use style="fill-opacity:0;stroke:#000000;" x="631.487084" xlink:href="#mfbd5d239a4" y="209.644092"/>
     <use style="fill-opacity:0;stroke:#000000;" x="631.487084" xlink:href="#mfbd5d239a4" y="60.404799"/>
    </g>
   </g>
   <g id="line2d_52">
    <path clip-path="url(#pb63a508a9a)" d="M 671.319189 205.91311 
L 671.319189 284.263739 
" style="fill:none;stroke:#000000;stroke-linecap:square;"/>
   </g>
   <g id="line2d_53">
    <path clip-path="url(#pb63a508a9a)" d="M 671.319189 138.755428 
L 671.319189 105.176587 
" style="fill:none;stroke:#000000;stroke-linecap:square;"/>
   </g>
   <g id="line2d_54">
    <path clip-path="url(#pb63a508a9a)" d="M 665.344374 284.263739 
L 677.294005 284.263739 
" style="fill:none;stroke:#000000;stroke-linecap:square;"/>
   </g>
   <g id="line2d_55">
    <path clip-path="url(#pb63a508a9a)" d="M 665.344374 105.176587 
L 677.294005 105.176587 
" style="fill:none;stroke:#000000;stroke-linecap:square;"/>
   </g>
   <g id="line2d_56"/>
   <g id="line2d_57">
    <path clip-path="url(#pb63a508a9a)" d="M 711.151295 194.720163 
L 711.151295 224.568021 
" style="fill:none;stroke:#000000;stroke-linecap:square;"/>
   </g>
   <g id="line2d_58">
    <path clip-path="url(#pb63a508a9a)" d="M 711.151295 120.100516 
L 711.151295 90.252657 
" style="fill:none;stroke:#000000;stroke-linecap:square;"/>
   </g>
   <g id="line2d_59">
    <path clip-path="url(#pb63a508a9a)" d="M 705.176479 224.568021 
L 717.126111 224.568021 
" style="fill:none;stroke:#000000;stroke-linecap:square;"/>
   </g>
   <g id="line2d_60">
    <path clip-path="url(#pb63a508a9a)" d="M 705.176479 90.252657 
L 717.126111 90.252657 
" style="fill:none;stroke:#000000;stroke-linecap:square;"/>
   </g>
   <g id="line2d_61"/>
   <g id="patch_3">
    <path clip-path="url(#pb63a508a9a)" d="M 101.720084 138.755428 
L 125.619347 138.755428 
L 125.619347 45.480869 
L 101.720084 45.480869 
L 101.720084 138.755428 
z
" style="fill:#add8e6;stroke:#000000;stroke-linejoin:miter;"/>
   </g>
   <g id="patch_4">
    <path clip-path="url(#pb63a508a9a)" d="M 141.55219 164.872304 
L 165.451453 164.872304 
L 165.451453 79.05971 
L 141.55219 79.05971 
L 141.55219 164.872304 
z
" style="fill:#90ee90;stroke:#000000;stroke-linejoin:miter;"/>
   </g>
   <g id="patch_5">
    <path clip-path="url(#pb63a508a9a)" d="M 181.384295 161.141322 
L 205.283558 161.141322 
L 205.283558 105.176587 
L 181.384295 105.176587 
L 181.384295 161.141322 
z
" style="fill:#f08080;stroke:#000000;stroke-linejoin:miter;"/>
   </g>
   <g id="patch_6">
    <path clip-path="url(#pb63a508a9a)" d="M 221.2164 131.293463 
L 245.115663 131.293463 
L 245.115663 90.252657 
L 221.2164 90.252657 
L 221.2164 131.293463 
z
" style="fill:#fafad2;stroke:#000000;stroke-linejoin:miter;"/>
   </g>
   <g id="patch_7">
    <path clip-path="url(#pb63a508a9a)" d="M 261.048505 131.293463 
L 284.947768 131.293463 
L 284.947768 79.05971 
L 261.048505 79.05971 
L 261.048505 131.293463 
z
" style="fill:#ffb6c1;stroke:#000000;stroke-linejoin:miter;"/>
   </g>
   <g id="patch_8">
    <path clip-path="url(#pb63a508a9a)" d="M 579.705347 164.872304 
L 603.604611 164.872304 
L 603.604611 127.562481 
L 579.705347 127.562481 
L 579.705347 164.872304 
z
" style="fill:#add8e6;stroke:#000000;stroke-linejoin:miter;"/>
   </g>
   <g id="patch_9">
    <path clip-path="url(#pb63a508a9a)" d="M 619.537453 149.948375 
L 643.436716 149.948375 
L 643.436716 123.831498 
L 619.537453 123.831498 
L 619.537453 149.948375 
z
" style="fill:#90ee90;stroke:#000000;stroke-linejoin:miter;"/>
   </g>
   <g id="patch_10">
    <path clip-path="url(#pb63a508a9a)" d="M 659.369558 205.91311 
L 683.268821 205.91311 
L 683.268821 138.755428 
L 659.369558 138.755428 
L 659.369558 205.91311 
z
" style="fill:#f08080;stroke:#000000;stroke-linejoin:miter;"/>
   </g>
   <g id="patch_11">
    <path clip-path="url(#pb63a508a9a)" d="M 699.201663 194.720163 
L 723.100926 194.720163 
L 723.100926 120.100516 
L 699.201663 120.100516 
L 699.201663 194.720163 
z
" style="fill:#ffb6c1;stroke:#000000;stroke-linejoin:miter;"/>
   </g>
   <g id="line2d_62">
    <path clip-path="url(#pb63a508a9a)" d="M 101.720084 90.252657 
L 125.619347 90.252657 
" style="fill:none;stroke:#ff7f0e;stroke-linecap:square;"/>
   </g>
   <g id="line2d_63">
    <path clip-path="url(#pb63a508a9a)" d="M 101.720084 102.191801 
L 125.619347 102.191801 
" style="fill:none;stroke:#000000;stroke-dasharray:3.7,1.6;stroke-dashoffset:0;"/>
   </g>
   <g id="line2d_64">
    <path clip-path="url(#pb63a508a9a)" d="M 141.55219 97.714622 
L 165.451453 97.714622 
" style="fill:none;stroke:#ff7f0e;stroke-linecap:square;"/>
   </g>
   <g id="line2d_65">
    <path clip-path="url(#pb63a508a9a)" d="M 141.55219 124.577695 
L 165.451453 124.577695 
" style="fill:none;stroke:#000000;stroke-dasharray:3.7,1.6;stroke-dashoffset:0;"/>
   </g>
   <g id="line2d_66">
    <path clip-path="url(#pb63a508a9a)" d="M 181.384295 135.024445 
L 205.283558 135.024445 
" style="fill:none;stroke:#ff7f0e;stroke-linecap:square;"/>
   </g>
   <g id="line2d_67">
    <path clip-path="url(#pb63a508a9a)" d="M 181.384295 135.024445 
L 205.283558 135.024445 
" style="fill:none;stroke:#000000;stroke-dasharray:3.7,1.6;stroke-dashoffset:0;"/>
   </g>
   <g id="line2d_68">
    <path clip-path="url(#pb63a508a9a)" d="M 221.2164 105.176587 
L 245.115663 105.176587 
" style="fill:none;stroke:#ff7f0e;stroke-linecap:square;"/>
   </g>
   <g id="line2d_69">
    <path clip-path="url(#pb63a508a9a)" d="M 221.2164 117.11573 
L 245.115663 117.11573 
" style="fill:none;stroke:#000000;stroke-dasharray:3.7,1.6;stroke-dashoffset:0;"/>
   </g>
   <g id="line2d_70">
    <path clip-path="url(#pb63a508a9a)" d="M 261.048505 90.252657 
L 284.947768 90.252657 
" style="fill:none;stroke:#ff7f0e;stroke-linecap:square;"/>
   </g>
   <g id="line2d_71">
    <path clip-path="url(#pb63a508a9a)" d="M 261.048505 106.66898 
L 284.947768 106.66898 
" style="fill:none;stroke:#000000;stroke-dasharray:3.7,1.6;stroke-dashoffset:0;"/>
   </g>
   <g id="line2d_72">
    <path clip-path="url(#pb63a508a9a)" d="M 579.705347 149.948375 
L 603.604611 149.948375 
" style="fill:none;stroke:#ff7f0e;stroke-linecap:square;"/>
   </g>
   <g id="line2d_73">
    <path clip-path="url(#pb63a508a9a)" d="M 579.705347 139.501624 
L 603.604611 139.501624 
" style="fill:none;stroke:#000000;stroke-dasharray:3.7,1.6;stroke-dashoffset:0;"/>
   </g>
   <g id="line2d_74">
    <path clip-path="url(#pb63a508a9a)" d="M 619.537453 135.024445 
L 643.436716 135.024445 
" style="fill:none;stroke:#ff7f0e;stroke-linecap:square;"/>
   </g>
   <g id="line2d_75">
    <path clip-path="url(#pb63a508a9a)" d="M 619.537453 135.024445 
L 643.436716 135.024445 
" style="fill:none;stroke:#000000;stroke-dasharray:3.7,1.6;stroke-dashoffset:0;"/>
   </g>
   <g id="line2d_76">
    <path clip-path="url(#pb63a508a9a)" d="M 659.369558 179.796233 
L 683.268821 179.796233 
" style="fill:none;stroke:#ff7f0e;stroke-linecap:square;"/>
   </g>
   <g id="line2d_77">
    <path clip-path="url(#pb63a508a9a)" d="M 659.369558 178.30384 
L 683.268821 178.30384 
" style="fill:none;stroke:#000000;stroke-dasharray:3.7,1.6;stroke-dashoffset:0;"/>
   </g>
   <g id="line2d_78">
    <path clip-path="url(#pb63a508a9a)" d="M 699.201663 135.024445 
L 723.100926 135.024445 
" style="fill:none;stroke:#ff7f0e;stroke-linecap:square;"/>
   </g>
   <g id="line2d_79">
    <path clip-path="url(#pb63a508a9a)" d="M 699.201663 152.93316 
L 723.100926 152.93316 
" style="fill:none;stroke:#000000;stroke-dasharray:3.7,1.6;stroke-dashoffset:0;"/>
   </g>
   <g id="patch_12">
    <path d="M 73.837611 296.949079 
L 73.837611 17.8716 
" style="fill:none;stroke:#000000;stroke-linecap:square;stroke-linejoin:miter;stroke-width:0.8;"/>
   </g>
   <g id="patch_13">
    <path d="M 750.9834 296.949079 
L 750.9834 17.8716 
" style="fill:none;stroke:#000000;stroke-linecap:square;stroke-linejoin:miter;stroke-width:0.8;"/>
   </g>
   <g id="patch_14">
    <path d="M 73.837611 296.949079 
L 750.9834 296.949079 
" style="fill:none;stroke:#000000;stroke-linecap:square;stroke-linejoin:miter;stroke-width:0.8;"/>
   </g>
   <g id="patch_15">
    <path d="M 73.837611 17.8716 
L 750.9834 17.8716 
" style="fill:none;stroke:#000000;stroke-linecap:square;stroke-linejoin:miter;stroke-width:0.8;"/>
   </g>
   <g id="text_18">
    <!-- Accuracies Box Plot -->
    <defs>
     <path d="M 44.28125 53.078125 
L 44.28125 44.578125 
Q 40.484375 46.53125 36.375 47.5 
Q 32.28125 48.484375 27.875 48.484375 
Q 21.1875 48.484375 17.84375 46.4375 
Q 14.5 44.390625 14.5 40.28125 
Q 14.5 37.15625 16.890625 35.375 
Q 19.28125 33.59375 26.515625 31.984375 
L 29.59375 31.296875 
Q 39.15625 29.25 43.1875 25.515625 
Q 47.21875 21.78125 47.21875 15.09375 
Q 47.21875 7.46875 41.1875 3.015625 
Q 35.15625 -1.421875 24.609375 -1.421875 
Q 20.21875 -1.421875 15.453125 -0.5625 
Q 10.6875 0.296875 5.421875 2 
L 5.421875 11.28125 
Q 10.40625 8.6875 15.234375 7.390625 
Q 20.0625 6.109375 24.8125 6.109375 
Q 31.15625 6.109375 34.5625 8.28125 
Q 37.984375 10.453125 37.984375 14.40625 
Q 37.984375 18.0625 35.515625 20.015625 
Q 33.0625 21.96875 24.703125 23.78125 
L 21.578125 24.515625 
Q 13.234375 26.265625 9.515625 29.90625 
Q 5.8125 33.546875 5.8125 39.890625 
Q 5.8125 47.609375 11.28125 51.796875 
Q 16.75 56 26.8125 56 
Q 31.78125 56 36.171875 55.265625 
Q 40.578125 54.546875 44.28125 53.078125 
z
" id="DejaVuSans-73"/>
     <path d="M 54.890625 54.6875 
L 35.109375 28.078125 
L 55.90625 0 
L 45.3125 0 
L 29.390625 21.484375 
L 13.484375 0 
L 2.875 0 
L 24.125 28.609375 
L 4.6875 54.6875 
L 15.28125 54.6875 
L 29.78125 35.203125 
L 44.28125 54.6875 
z
" id="DejaVuSans-78"/>
    </defs>
    <g transform="translate(353.521443 11.8716)scale(0.12 -0.12)">
     <use xlink:href="#DejaVuSans-41"/>
     <use x="68.392578" xlink:href="#DejaVuSans-63"/>
     <use x="123.373047" xlink:href="#DejaVuSans-63"/>
     <use x="178.353516" xlink:href="#DejaVuSans-75"/>
     <use x="241.732422" xlink:href="#DejaVuSans-72"/>
     <use x="282.845703" xlink:href="#DejaVuSans-61"/>
     <use x="344.125" xlink:href="#DejaVuSans-63"/>
     <use x="399.105469" xlink:href="#DejaVuSans-69"/>
     <use x="426.888672" xlink:href="#DejaVuSans-65"/>
     <use x="488.412109" xlink:href="#DejaVuSans-73"/>
     <use x="540.511719" xlink:href="#DejaVuSans-20"/>
     <use x="572.298828" xlink:href="#DejaVuSans-42"/>
     <use x="640.902344" xlink:href="#DejaVuSans-6f"/>
     <use x="702.037109" xlink:href="#DejaVuSans-78"/>
     <use x="761.216797" xlink:href="#DejaVuSans-20"/>
     <use x="793.003906" xlink:href="#DejaVuSans-50"/>
     <use x="853.306641" xlink:href="#DejaVuSans-6c"/>
     <use x="881.089844" xlink:href="#DejaVuSans-6f"/>
     <use x="942.271484" xlink:href="#DejaVuSans-74"/>
    </g>
   </g>
   <g id="legend_1">
    <g id="patch_16">
     <path d="M 675.609963 55.22785 
L 743.9834 55.22785 
Q 745.9834 55.22785 745.9834 53.22785 
L 745.9834 24.8716 
Q 745.9834 22.8716 743.9834 22.8716 
L 675.609963 22.8716 
Q 673.609963 22.8716 673.609963 24.8716 
L 673.609963 53.22785 
Q 673.609963 55.22785 675.609963 55.22785 
z
" style="fill:#ffffff;opacity:0.8;stroke:#cccccc;stroke-linejoin:miter;"/>
    </g>
    <g id="line2d_80">
     <path d="M 677.609963 30.970037 
L 697.609963 30.970037 
" style="fill:none;stroke:#ff7f0e;stroke-linecap:square;"/>
    </g>
    <g id="line2d_81"/>
    <g id="text_19">
     <!-- Median -->
     <g transform="translate(705.609963 34.470037)scale(0.1 -0.1)">
      <use xlink:href="#DejaVuSans-4d"/>
      <use x="86.279297" xlink:href="#DejaVuSans-65"/>
      <use x="147.802734" xlink:href="#DejaVuSans-64"/>
      <use x="211.279297" xlink:href="#DejaVuSans-69"/>
      <use x="239.0625" xlink:href="#DejaVuSans-61"/>
      <use x="300.341797" xlink:href="#DejaVuSans-6e"/>
     </g>
    </g>
    <g id="line2d_82">
     <path d="M 677.609963 45.648162 
L 697.609963 45.648162 
" style="fill:none;stroke:#000000;stroke-dasharray:3.7,1.6;stroke-dashoffset:0;"/>
    </g>
    <g id="line2d_83"/>
    <g id="text_20">
     <!-- Mean -->
     <g transform="translate(705.609963 49.148162)scale(0.1 -0.1)">
      <use xlink:href="#DejaVuSans-4d"/>
      <use x="86.279297" xlink:href="#DejaVuSans-65"/>
      <use x="147.802734" xlink:href="#DejaVuSans-61"/>
      <use x="209.082031" xlink:href="#DejaVuSans-6e"/>
     </g>
    </g>
   </g>
  </g>
 </g>
 <defs>
  <clipPath id="pb63a508a9a">
   <rect height="279.077479" width="677.145789" x="73.837611" y="17.8716"/>
  </clipPath>
 </defs>
</svg>
